<svg width="200" height="200" viewBox="0 0 14 14" fill="none" xmlns="http://www.w3.org/2000/svg">
<g clip-path="url(#clip0_18_243)">
<path d="M9.71289 5.94531V3.93359C9.71289 3.29334 9.45855 2.67932 9.00583 2.22659C8.5531 1.77387 7.93908 1.51953 7.29883 1.51953C6.65858 1.51953 6.04455 1.77387 5.59183 2.22659C5.1391 2.67932 4.88477 3.29334 4.88477 3.93359V5.94531M4.48242 11.9805H10.1152C10.4354 11.9805 10.7424 11.8533 10.9687 11.6269C11.1951 11.4006 11.3223 11.0936 11.3223 10.7734V7.15234C11.3223 6.83222 11.1951 6.52521 10.9687 6.29884C10.7424 6.07248 10.4354 5.94531 10.1152 5.94531H4.48242C4.1623 5.94531 3.85528 6.07248 3.62892 6.29884C3.40256 6.52521 3.27539 6.83222 3.27539 7.15234V10.7734C3.27539 11.0936 3.40256 11.4006 3.62892 11.6269C3.85528 11.8533 4.1623 11.9805 4.48242 11.9805Z" stroke="black" stroke-width="1.07292" stroke-linecap="round" stroke-linejoin="round"/>
</g>
<defs>
<clipPath id="clip0_18_243">
<rect width="12.875" height="12.875" fill="white" transform="translate(0.861328 0.3125)"/>
</clipPath>
</defs>
</svg>