<?xml version="1.0" standalone="no"?>
<!DOCTYPE svg PUBLIC "-//W3C//DTD SVG 20010904//EN"
 "http://www.w3.org/TR/2001/REC-SVG-20010904/DTD/svg10.dtd">
<svg version="1.0" xmlns="http://www.w3.org/2000/svg"
 width="256.000000pt" height="256.000000pt" viewBox="0 0 256.000000 256.000000"
 preserveAspectRatio="xMidYMid meet">

<g transform="translate(0.000000,256.000000) scale(0.100000,-0.100000)"
fill="#000000" stroke="none">
<path d="M1141 2544 c-185 -40 -349 -171 -437 -349 -52 -105 -64 -180 -64
-402 l0 -193 -56 0 c-31 0 -75 -5 -98 -12 -55 -16 -138 -99 -154 -154 -17 -59
-17 -1209 0 -1268 16 -55 99 -138 154 -154 59 -17 1529 -17 1588 0 55 16 138
99 154 154 17 58 17 1209 0 1266 -6 22 -31 62 -55 88 -51 57 -108 80 -195 80
l-58 0 0 193 c0 229 -12 297 -72 417 -129 257 -423 396 -707 334z m210 -204
c178 -34 315 -171 349 -349 5 -30 10 -130 10 -222 l0 -169 -430 0 -430 0 0
163 c0 89 4 188 10 221 22 137 113 261 234 317 98 46 166 56 257 39z m-16
-1035 c21 -20 25 -34 25 -80 l0 -55 66 0 c77 0 97 -9 114 -49 9 -24 9 -35 -2
-57 -21 -46 -50 -54 -195 -54 -104 0 -135 -3 -147 -15 -26 -27 -29 -56 -9 -84
18 -24 28 -26 109 -31 127 -8 183 -42 235 -140 20 -40 16 -138 -9 -186 -26
-50 -79 -98 -126 -114 -35 -11 -36 -12 -36 -66 0 -68 -29 -104 -84 -104 -50 0
-76 36 -76 106 l0 54 -66 0 c-77 0 -97 9 -114 49 -9 24 -9 35 2 57 21 46 50
54 193 54 72 0 135 4 141 8 13 9 34 46 34 62 0 6 -11 22 -25 35 -21 22 -33 25
-97 25 -128 0 -211 57 -244 167 -33 109 33 237 140 273 35 11 36 12 36 66 0
66 29 104 80 104 19 0 40 -9 55 -25z"/>
</g>
</svg>
